<?xml version="1.0" encoding="UTF-8"?>
<!DOCTYPE svg PUBLIC "-//W3C//DTD SVG 1.1//EN" "http://www.w3.org/Graphics/SVG/1.1/DTD/svg11.dtd">
<svg xmlns="http://www.w3.org/2000/svg" version="1.1" width="591px" height="422px" style="shape-rendering:geometricPrecision; text-rendering:geometricPrecision; image-rendering:optimizeQuality; fill-rule:evenodd; clip-rule:evenodd" xmlns:xlink="http://www.w3.org/1999/xlink">
<g><path style="opacity:0.004" fill="#fefffe" d="M 350.5,6.5 C 351.833,7.16667 351.833,7.16667 350.5,6.5 Z"/></g>
<g><path style="opacity:0.004" fill="#fefffe" d="M 41.5,16.5 C 42.8333,17.1667 42.8333,17.1667 41.5,16.5 Z"/></g>
<g><path style="opacity:0.004" fill="#fefffe" d="M 377.5,17.5 C 378.833,18.1667 378.833,18.1667 377.5,17.5 Z"/></g>
<g><path style="opacity:0.004" fill="#fefffe" d="M 284.5,18.5 C 285.833,19.1667 285.833,19.1667 284.5,18.5 Z"/></g>
<g><path style="opacity:0.004" fill="#fefffe" d="M 368.5,28.5 C 369.833,29.1667 369.833,29.1667 368.5,28.5 Z"/></g>
<g><path style="opacity:0.004" fill="#fefffe" d="M 29.5,33.5 C 30.8333,34.1667 30.8333,34.1667 29.5,33.5 Z"/></g>
<g><path style="opacity:0.004" fill="#fefffe" d="M 371.5,33.5 C 372.833,34.1667 372.833,34.1667 371.5,33.5 Z"/></g>
<g><path style="opacity:0.004" fill="#fefffe" d="M 347.5,45.5 C 348.833,46.1667 348.833,46.1667 347.5,45.5 Z"/></g>
<g><path style="opacity:0.004" fill="#fefffe" d="M 539.5,47.5 C 540.833,48.1667 540.833,48.1667 539.5,47.5 Z"/></g>
<g><path style="opacity:0.004" fill="#fefffe" d="M 233.5,61.5 C 234.833,62.1667 234.833,62.1667 233.5,61.5 Z"/></g>
<g><path style="opacity:0.004" fill="#fefffe" d="M 59.5,72.5 C 60.8333,73.1667 60.8333,73.1667 59.5,72.5 Z"/></g>
<g><path style="opacity:0.004" fill="#fefffe" d="M 233.5,78.5 C 234.833,79.1667 234.833,79.1667 233.5,78.5 Z"/></g>
<g><path style="opacity:0.004" fill="#fefffe" d="M 113.5,92.5 C 114.833,93.1667 114.833,93.1667 113.5,92.5 Z"/></g>
<g><path style="opacity:0.004" fill="#fefffe" d="M 344.5,101.5 C 345.833,102.167 345.833,102.167 344.5,101.5 Z"/></g>
<g><path style="opacity:0.004" fill="#fefffe" d="M 74.5,104.5 C 75.8333,105.167 75.8333,105.167 74.5,104.5 Z"/></g>
<g><path style="opacity:0.004" fill="#fefffe" d="M 479.5,104.5 C 480.833,105.167 480.833,105.167 479.5,104.5 Z"/></g>
<g><path style="opacity:0.004" fill="#fefffe" d="M 500.5,104.5 C 501.833,105.167 501.833,105.167 500.5,104.5 Z"/></g>
<g><path style="opacity:0.004" fill="#fefffe" d="M 305.5,108.5 C 306.833,109.167 306.833,109.167 305.5,108.5 Z"/></g>
<g><path style="opacity:0.004" fill="#fefffe" d="M 431.5,114.5 C 432.833,115.167 432.833,115.167 431.5,114.5 Z"/></g>
<g><path style="opacity:0.004" fill="#fefffe" d="M 86.5,122.5 C 87.8333,123.167 87.8333,123.167 86.5,122.5 Z"/></g>
<g><path style="opacity:0.024" fill="#d4d4d4" d="M 300.5,124.5 C 301.623,123.243 302.289,123.576 302.5,125.5C 301.833,125.167 301.167,124.833 300.5,124.5 Z"/></g>
<g><path style="opacity:0.999" fill="#2c2c2e" d="M 300.5,124.5 C 301.167,124.833 301.833,125.167 302.5,125.5C 308.341,135.849 313.675,146.516 318.5,157.5C 316.831,156.11 315.164,155.777 313.5,156.5C 309.362,148.895 305.195,141.229 301,133.5C 295.392,145.051 289.559,156.384 283.5,167.5C 282.597,165.38 281.263,165.046 279.5,166.5C 285.992,152.182 292.992,138.182 300.5,124.5 Z"/></g>
<g><path style="opacity:0.004" fill="#fefffe" d="M 419.5,138.5 C 420.833,139.167 420.833,139.167 419.5,138.5 Z"/></g>
<g><path style="opacity:0.004" fill="#fefffe" d="M 260.5,141.5 C 261.833,142.167 261.833,142.167 260.5,141.5 Z"/></g>
<g><path style="opacity:1" fill="#ecebfa" d="M 313.5,156.5 C 317.883,166.267 322.55,175.934 327.5,185.5C 327.167,185.833 326.833,186.167 326.5,186.5C 308.219,189.491 289.885,192.158 271.5,194.5C 275.219,185.393 279.219,176.393 283.5,167.5C 289.559,156.384 295.392,145.051 301,133.5C 305.195,141.229 309.362,148.895 313.5,156.5 Z"/></g>
<g><path style="opacity:1" fill="#060606" d="M 396.5,145.5 C 396.17,162.675 396.503,179.675 397.5,196.5C 399.262,195.738 400.262,194.404 400.5,192.5C 400.833,191.5 401.5,190.833 402.5,190.5C 403.906,190.027 404.573,189.027 404.5,187.5C 404.833,186.5 405.5,185.833 406.5,185.5C 408.262,184.738 409.262,183.404 409.5,181.5C 409.833,180.5 410.5,179.833 411.5,179.5C 413.262,178.738 414.262,177.404 414.5,175.5C 414.833,174.5 415.5,173.833 416.5,173.5C 417.289,173.217 417.956,172.717 418.5,172C 426.677,171.177 434.677,171.344 442.5,172.5C 441.876,174.754 440.543,176.421 438.5,177.5C 437.5,177.833 436.833,178.5 436.5,179.5C 432.17,186.133 427.336,192.467 422,198.5C 421.53,199.577 421.697,200.577 422.5,201.5C 422.738,203.404 423.738,204.738 425.5,205.5C 425.427,207.027 426.094,208.027 427.5,208.5C 428.5,208.833 429.167,209.5 429.5,210.5C 429.427,212.027 430.094,213.027 431.5,213.5C 431.427,215.027 432.094,216.027 433.5,216.5C 435.633,218.091 437.299,220.091 438.5,222.5C 438.427,224.027 439.094,225.027 440.5,225.5C 440.738,227.404 441.738,228.738 443.5,229.5C 434.348,230.494 425.015,230.827 415.5,230.5C 413.833,227.833 412.167,225.167 410.5,222.5C 410.715,220.821 410.048,219.821 408.5,219.5C 405.524,214.898 402.524,210.231 399.5,205.5C 398.998,204.479 398.332,204.312 397.5,205C 396.516,213.749 396.183,222.582 396.5,231.5C 388.5,231.5 380.5,231.5 372.5,231.5C 372.5,202.833 372.5,174.167 372.5,145.5C 380.5,145.5 388.5,145.5 396.5,145.5 Z"/></g>
<g><path style="opacity:0.004" fill="#fefffe" d="M 560.5,148.5 C 561.833,149.167 561.833,149.167 560.5,148.5 Z"/></g>
<g><path style="opacity:1" fill="#121212" d="M 142.5,192.5 C 142.427,194.027 143.094,195.027 144.5,195.5C 145.558,196.6 146.392,197.934 147,199.5C 150.815,218.388 143.315,229.555 124.5,233C 113.965,234.07 103.632,233.236 93.5,230.5C 91.8984,228.926 89.8984,228.259 87.5,228.5C 86.5084,228.672 85.8417,228.338 85.5,227.5C 85.1771,221.31 85.5104,215.31 86.5,209.5C 94.6237,212.989 103.124,214.989 112,215.5C 119.404,216.697 122.904,213.697 122.5,206.5C 121.738,204.738 120.404,203.738 118.5,203.5C 114.605,202.538 110.939,201.204 107.5,199.5C 105.898,197.926 103.898,197.259 101.5,197.5C 86.6224,191.715 81.1224,181.048 85,165.5C 87.5837,158.618 92.4171,154.118 99.5,152C 113.972,148.902 128.305,149.569 142.5,154C 143.578,154.674 144.245,155.674 144.5,157C 143.631,162.129 143.298,167.296 143.5,172.5C 135.353,170.048 127.02,168.381 118.5,167.5C 115.408,167.507 112.408,168.007 109.5,169C 108.196,169.804 107.529,170.971 107.5,172.5C 108.269,175.104 109.936,176.938 112.5,178C 121.582,180.429 130.249,183.763 138.5,188C 140.041,189.371 141.375,190.871 142.5,192.5 Z"/></g>
<g><path style="opacity:0.224" fill="#c0c0c0" d="M 396.5,145.5 C 388.5,145.5 380.5,145.5 372.5,145.5C 372.5,174.167 372.5,202.833 372.5,231.5C 371.502,202.671 371.169,173.671 371.5,144.5C 380.017,144.174 388.35,144.507 396.5,145.5 Z"/></g>
<g><path style="opacity:0.004" fill="#fefffe" d="M 77.5,158.5 C 78.8333,159.167 78.8333,159.167 77.5,158.5 Z"/></g>
<g><path style="opacity:0.004" fill="#fefffe" d="M 161.5,160.5 C 162.833,161.167 162.833,161.167 161.5,160.5 Z"/></g>
<g><path style="opacity:1" fill="#0b0b0b" d="M 318.5,157.5 C 331.619,182.072 343.952,207.072 355.5,232.5C 319.161,232.833 282.827,232.5 246.5,231.5C 257.274,209.617 268.274,187.95 279.5,166.5C 281.263,165.046 282.597,165.38 283.5,167.5C 279.219,176.393 275.219,185.393 271.5,194.5C 289.885,192.158 308.219,189.491 326.5,186.5C 326.833,186.167 327.167,185.833 327.5,185.5C 322.55,175.934 317.883,166.267 313.5,156.5C 315.164,155.777 316.831,156.11 318.5,157.5 Z"/></g>
<g><path style="opacity:0.004" fill="#fefffe" d="M 164.5,166.5 C 165.833,167.167 165.833,167.167 164.5,166.5 Z"/></g>
<g><path style="opacity:1" fill="#0a0a0a" d="M 188.5,193.5 C 187.505,205.655 187.171,217.989 187.5,230.5C 179.833,230.5 172.167,230.5 164.5,230.5C 164.5,210.833 164.5,191.167 164.5,171.5C 172.167,171.5 179.833,171.5 187.5,171.5C 187.5,172.5 187.5,173.5 187.5,174.5C 187.34,176.199 187.506,177.866 188,179.5C 198.515,169.569 210.682,166.736 224.5,171C 230.327,174.158 233.827,178.992 235,185.5C 235.5,200.83 235.667,216.163 235.5,231.5C 227.167,231.5 218.833,231.5 210.5,231.5C 210.929,217.441 210.429,203.441 209,189.5C 200.913,183.446 194.08,184.78 188.5,193.5 Z"/></g>
<g><path style="opacity:1" fill="#121212" d="M 504.5,179.5 C 505.2,183.798 505.533,188.131 505.5,192.5C 504.764,196.791 502.431,199.958 498.5,202C 493.409,204.252 488.075,205.418 482.5,205.5C 477.833,205.5 473.167,205.5 468.5,205.5C 468.263,206.791 468.596,207.791 469.5,208.5C 471.234,212.387 474.234,214.887 478.5,216C 487.162,217.193 495.495,216.026 503.5,212.5C 504.833,218.167 504.833,223.833 503.5,229.5C 489.536,234.517 475.536,234.684 461.5,230C 444.366,220.21 439.366,206.044 446.5,187.5C 447.906,187.027 448.573,186.027 448.5,184.5C 450.167,180.833 452.833,178.167 456.5,176.5C 458.027,176.573 459.027,175.906 459.5,174.5C 460.514,173.326 461.847,172.66 463.5,172.5C 465.698,172.88 467.365,172.213 468.5,170.5C 479.702,167.433 490.369,168.767 500.5,174.5C 502.237,175.897 503.571,177.564 504.5,179.5 Z M 478.5,183.5 C 481.216,183.678 483.883,184.178 486.5,185C 489.909,190.636 488.243,193.97 481.5,195C 477.221,196.244 472.888,196.577 468.5,196C 469.116,189.56 472.45,185.394 478.5,183.5 Z"/></g>
<g><path style="opacity:0.742" fill="#535353" d="M 442.5,172.5 C 434.677,171.344 426.677,171.177 418.5,172C 417.956,172.717 417.289,173.217 416.5,173.5C 416.414,172.504 416.748,171.671 417.5,171C 426.186,170.168 434.853,170.335 443.5,171.5C 443.376,172.107 443.043,172.44 442.5,172.5 Z"/></g>
<g><path style="opacity:0.918" fill="#7a7a7a" d="M 468.5,170.5 C 467.365,172.213 465.698,172.88 463.5,172.5C 464.93,171.463 466.597,170.796 468.5,170.5 Z"/></g>
<g><path style="opacity:0.798" fill="#4c4c4c" d="M 187.5,174.5 C 187.5,173.5 187.5,172.5 187.5,171.5C 179.833,171.5 172.167,171.5 164.5,171.5C 164.5,191.167 164.5,210.833 164.5,230.5C 172.167,230.5 179.833,230.5 187.5,230.5C 187.171,217.989 187.505,205.655 188.5,193.5C 188.5,206.167 188.5,218.833 188.5,231.5C 180.167,231.5 171.833,231.5 163.5,231.5C 163.5,211.167 163.5,190.833 163.5,170.5C 171.833,170.5 180.167,170.5 188.5,170.5C 188.768,172.099 188.434,173.432 187.5,174.5 Z"/></g>
<g><path style="opacity:0.765" fill="#7d7d7d" d="M 459.5,174.5 C 459.027,175.906 458.027,176.573 456.5,176.5C 456.973,175.094 457.973,174.427 459.5,174.5 Z"/></g>
<g><path style="opacity:0.804" fill="#838383" d="M 414.5,175.5 C 414.262,177.404 413.262,178.738 411.5,179.5C 411.738,177.596 412.738,176.262 414.5,175.5 Z"/></g>
<g><path style="opacity:0.004" fill="#c0c0c0" d="M 438.5,177.5 C 438.5,178.833 437.833,179.5 436.5,179.5C 436.833,178.5 437.5,177.833 438.5,177.5 Z"/></g>
<g><path style="opacity:0.675" fill="#999999" d="M 409.5,181.5 C 409.262,183.404 408.262,184.738 406.5,185.5C 406.738,183.596 407.738,182.262 409.5,181.5 Z"/></g>
<g><path style="opacity:0.004" fill="#fefffe" d="M 539.5,184.5 C 540.833,185.167 540.833,185.167 539.5,184.5 Z"/></g>
<g><path style="opacity:0.004" fill="#fefffe" d="M 50.5,185.5 C 51.8333,186.167 51.8333,186.167 50.5,185.5 Z"/></g>
<g><path style="opacity:0.448" fill="#9c9c9c" d="M 504.5,179.5 C 505.952,181.848 506.618,184.514 506.5,187.5C 506.493,189.369 506.16,191.036 505.5,192.5C 505.533,188.131 505.2,183.798 504.5,179.5 Z"/></g>
<g><path style="opacity:0.333" fill="#a8a8a8" d="M 448.5,184.5 C 448.573,186.027 447.906,187.027 446.5,187.5C 446.427,185.973 447.094,184.973 448.5,184.5 Z"/></g>
<g><path style="opacity:0.761" fill="#8c8c8c" d="M 404.5,187.5 C 404.573,189.027 403.906,190.027 402.5,190.5C 402.427,188.973 403.094,187.973 404.5,187.5 Z"/></g>
<g><path style="opacity:0.792" fill="#8d8d8d" d="M 400.5,192.5 C 400.262,194.404 399.262,195.738 397.5,196.5C 397.738,194.596 398.738,193.262 400.5,192.5 Z"/></g>
<g><path style="opacity:0.486" fill="#949494" d="M 142.5,192.5 C 143.906,192.973 144.573,193.973 144.5,195.5C 143.094,195.027 142.427,194.027 142.5,192.5 Z"/></g>
<g><path style="opacity:0.004" fill="#fefffe" d="M 257.5,196.5 C 258.833,197.167 258.833,197.167 257.5,196.5 Z"/></g>
<g><path style="opacity:0.831" fill="#5e5f5f" d="M 101.5,197.5 C 103.898,197.259 105.898,197.926 107.5,199.5C 105.102,199.741 103.102,199.074 101.5,197.5 Z"/></g>
<g><path style="opacity:0.573" fill="#999999" d="M 422.5,201.5 C 424.262,202.262 425.262,203.596 425.5,205.5C 423.738,204.738 422.738,203.404 422.5,201.5 Z"/></g>
<g><path style="opacity:0.502" fill="#a5a5a5" d="M 118.5,203.5 C 120.404,203.738 121.738,204.738 122.5,206.5C 120.596,206.262 119.262,205.262 118.5,203.5 Z"/></g>
<g><path style="opacity:0.303" fill="#afafaf" d="M 482.5,205.5 C 477.906,205.865 473.573,206.865 469.5,208.5C 468.596,207.791 468.263,206.791 468.5,205.5C 473.167,205.5 477.833,205.5 482.5,205.5 Z"/></g>
<g><path style="opacity:0.588" fill="#848484" d="M 425.5,205.5 C 426.906,205.973 427.573,206.973 427.5,208.5C 426.094,208.027 425.427,207.027 425.5,205.5 Z"/></g>
<g><path style="opacity:0.004" fill="#fefffe" d="M 368.5,210.5 C 369.833,211.167 369.833,211.167 368.5,210.5 Z"/></g>
<g><path style="opacity:0.004" fill="#fefffe" d="M 485.5,210.5 C 486.833,211.167 486.833,211.167 485.5,210.5 Z"/></g>
<g><path style="opacity:0.471" fill="#9a9a9a" d="M 429.5,210.5 C 430.906,210.973 431.573,211.973 431.5,213.5C 430.094,213.027 429.427,212.027 429.5,210.5 Z"/></g>
<g><path style="opacity:0.231" fill="#c4c4c4" d="M 86.5,209.5 C 85.5104,215.31 85.1771,221.31 85.5,227.5C 84.1826,221.322 84.1826,214.988 85.5,208.5C 86.1067,208.624 86.44,208.957 86.5,209.5 Z"/></g>
<g><path style="opacity:0.78" fill="#848484" d="M 431.5,213.5 C 432.906,213.973 433.573,214.973 433.5,216.5C 432.094,216.027 431.427,215.027 431.5,213.5 Z"/></g>
<g><path style="opacity:0.004" fill="#fefffe" d="M 152.5,216.5 C 153.833,217.167 153.833,217.167 152.5,216.5 Z"/></g>
<g><path style="opacity:0.933" fill="#7c7c7c" d="M 408.5,219.5 C 410.048,219.821 410.715,220.821 410.5,222.5C 409.599,221.71 408.932,220.71 408.5,219.5 Z"/></g>
<g><path style="opacity:0.486" fill="#979797" d="M 438.5,222.5 C 439.906,222.973 440.573,223.973 440.5,225.5C 439.094,225.027 438.427,224.027 438.5,222.5 Z"/></g>
<g><path style="opacity:0.612" fill="#939393" d="M 440.5,225.5 C 442.262,226.262 443.262,227.596 443.5,229.5C 441.738,228.738 440.738,227.404 440.5,225.5 Z"/></g>
<g><path style="opacity:0.831" fill="#888888" d="M 87.5,228.5 C 89.8984,228.259 91.8984,228.926 93.5,230.5C 91.2143,230.405 89.2143,229.738 87.5,228.5 Z"/></g>
<g><path style="opacity:0.004" fill="#fefffe" d="M 575.5,228.5 C 576.833,229.167 576.833,229.167 575.5,228.5 Z"/></g>
<g><path style="opacity:0.82" fill="#373737" d="M 443.5,229.5 C 444.289,229.783 444.956,230.283 445.5,231C 435.325,231.825 425.325,231.658 415.5,230.5C 425.015,230.827 434.348,230.494 443.5,229.5 Z"/></g>
<g><path style="opacity:0.004" fill="#fefffe" d="M 5.5,241.5 C 6.83333,242.167 6.83333,242.167 5.5,241.5 Z"/></g>
<g><path style="opacity:1" fill="#151615" d="M 273.5,242.5 C 273.66,244.153 274.326,245.486 275.5,246.5C 276.931,247.78 277.598,249.447 277.5,251.5C 277.709,252.922 278.209,254.255 279,255.5C 278.892,250.72 279.725,246.386 281.5,242.5C 281.5,248.833 281.5,255.167 281.5,261.5C 280.5,261.5 279.5,261.5 278.5,261.5C 276.796,258.744 275.463,255.744 274.5,252.5C 274.291,251.078 273.791,249.745 273,248.5C 273.108,253.28 272.275,257.614 270.5,261.5C 270.5,255.167 270.5,248.833 270.5,242.5C 271.5,242.5 272.5,242.5 273.5,242.5 Z"/></g>
<g><path style="opacity:0.188" fill="#a3a3a3" d="M 273.5,242.5 C 275.104,243.287 275.771,244.62 275.5,246.5C 274.326,245.486 273.66,244.153 273.5,242.5 Z"/></g>
<g><path style="opacity:0.235" fill="#bdbdbd" d="M 282.5,242.5 C 282.167,242.5 281.833,242.5 281.5,242.5C 279.725,246.386 278.892,250.72 279,255.5C 278.209,254.255 277.709,252.922 277.5,251.5C 278.479,248.375 278.813,245.042 278.5,241.5C 280.099,241.232 281.432,241.566 282.5,242.5 Z"/></g>
<g><path style="opacity:0.701" fill="#565656" d="M 281.5,242.5 C 281.833,242.5 282.167,242.5 282.5,242.5C 282.5,249.167 282.5,255.833 282.5,262.5C 280.901,262.768 279.568,262.434 278.5,261.5C 279.5,261.5 280.5,261.5 281.5,261.5C 281.5,255.167 281.5,248.833 281.5,242.5 Z"/></g>
<g><path style="opacity:1" fill="#2c2c2c" d="M 299.5,251.5 C 299.5,252.833 299.5,254.167 299.5,255.5C 295.774,255.177 292.107,255.511 288.5,256.5C 288.624,257.107 288.957,257.44 289.5,257.5C 292.01,259.773 294.676,259.773 297.5,257.5C 298.107,257.624 298.44,257.957 298.5,258.5C 298.443,259.609 298.11,260.609 297.5,261.5C 295.034,262.634 292.367,262.801 289.5,262C 288.058,261.623 287.058,260.79 286.5,259.5C 286.737,258.209 286.404,257.209 285.5,256.5C 285.344,248.181 289.344,245.348 297.5,248C 298.823,248.816 299.489,249.983 299.5,251.5 Z M 295.5,251.5 C 293.833,252.833 292.167,252.833 290.5,251.5C 292.167,250.167 293.833,250.167 295.5,251.5 Z"/></g>
<g><path style="opacity:0.999" fill="#1f1f1f" d="M 305.5,248.5 C 305.192,250.924 305.526,253.257 306.5,255.5C 307.429,254.311 307.762,252.978 307.5,251.5C 307.5,250.167 307.5,248.833 307.5,247.5C 309.099,247.232 310.432,247.566 311.5,248.5C 311.421,251.271 311.921,253.937 313,256.5C 313.494,254.866 313.66,253.199 313.5,251.5C 313.5,250.833 313.5,250.167 313.5,249.5C 314.15,249.196 314.817,248.863 315.5,248.5C 316.452,250.045 316.785,251.712 316.5,253.5C 316.795,255.735 316.461,257.735 315.5,259.5C 313.833,262.167 312.167,262.167 310.5,259.5C 310.5,259.167 310.5,258.833 310.5,258.5C 310.657,257.127 310.49,255.793 310,254.5C 308.681,256.25 308.181,258.25 308.5,260.5C 308.5,260.833 308.5,261.167 308.5,261.5C 307.167,261.5 305.833,261.5 304.5,261.5C 304.737,260.209 304.404,259.209 303.5,258.5C 302.727,254.86 302.06,251.193 301.5,247.5C 303.099,247.232 304.432,247.566 305.5,248.5 Z"/></g>
<g><path style="opacity:0.537" fill="#989898" d="M 316.5,253.5 C 316.785,251.712 316.452,250.045 315.5,248.5C 314.817,248.863 314.15,249.196 313.5,249.5C 314.183,247.824 315.517,247.157 317.5,247.5C 317.795,249.735 317.461,251.735 316.5,253.5 Z"/></g>
<g><path style="opacity:0.23" fill="#d3d3d3" d="M 261.5,250.5 C 202.5,250.5 143.5,250.5 84.5,250.5C 84.5,251.833 84.5,253.167 84.5,254.5C 143.5,254.5 202.5,254.5 261.5,254.5C 202.336,255.499 143.002,255.832 83.5,255.5C 83.5,253.5 83.5,251.5 83.5,249.5C 143.002,249.168 202.336,249.501 261.5,250.5 Z"/></g>
<g><path style="opacity:0.54" fill="#797979" d="M 341.5,250.5 C 396.331,249.501 451.331,249.168 506.5,249.5C 506.784,251.415 506.451,253.081 505.5,254.5C 505.5,253.167 505.5,251.833 505.5,250.5C 450.833,250.5 396.167,250.5 341.5,250.5 Z"/></g>
<g><path style="opacity:1" fill="#000000" d="M 261.5,250.5 C 261.5,251.833 261.5,253.167 261.5,254.5C 202.5,254.5 143.5,254.5 84.5,254.5C 84.5,253.167 84.5,251.833 84.5,250.5C 143.5,250.5 202.5,250.5 261.5,250.5 Z"/></g>
<g><path style="opacity:0.999" fill="#3e3e3e" d="M 321.5,261.5 C 319.871,259.804 320.204,258.804 322.5,258.5C 325.075,259.279 327.408,259.113 329.5,258C 326.5,257 323.5,256 320.5,255C 319.018,252.408 319.352,250.075 321.5,248C 324.833,247.333 328.167,247.333 331.5,248C 332.849,249.635 332.682,251.135 331,252.5C 328.599,251.398 326.099,251.231 323.5,252C 326.982,252.489 330.149,253.655 333,255.5C 334.175,260.828 332.008,263.161 326.5,262.5C 324.631,262.493 322.964,262.16 321.5,261.5 Z"/></g>
<g><path style="opacity:1" fill="#0f0f0f" d="M 341.5,250.5 C 396.167,250.5 450.833,250.5 505.5,250.5C 505.5,251.833 505.5,253.167 505.5,254.5C 450.833,254.5 396.167,254.5 341.5,254.5C 341.5,253.167 341.5,251.833 341.5,250.5 Z"/></g>
<g><path style="opacity:0.667" fill="#5f5f5f" d="M 273.5,242.5 C 272.5,242.5 271.5,242.5 270.5,242.5C 270.5,248.833 270.5,255.167 270.5,261.5C 270.167,261.5 269.833,261.5 269.5,261.5C 269.5,254.833 269.5,248.167 269.5,241.5C 271.099,241.232 272.432,241.566 273.5,242.5 Z"/></g>
<g><path style="opacity:0.251" fill="#c4c4c4" d="M 290.5,251.5 C 292.167,252.833 293.833,252.833 295.5,251.5C 296.043,251.56 296.376,251.893 296.5,252.5C 294.167,253.833 291.833,253.833 289.5,252.5C 289.624,251.893 289.957,251.56 290.5,251.5 Z"/></g>
<g><path style="opacity:0.537" fill="#adadad" d="M 311.5,248.5 C 312.167,249.5 312.833,250.5 313.5,251.5C 313.66,253.199 313.494,254.866 313,256.5C 311.921,253.937 311.421,251.271 311.5,248.5 Z"/></g>
<g><path style="opacity:0.565" fill="#979797" d="M 305.5,248.5 C 306.167,249.5 306.833,250.5 307.5,251.5C 307.762,252.978 307.429,254.311 306.5,255.5C 305.526,253.257 305.192,250.924 305.5,248.5 Z"/></g>
<g><path style="opacity:0.306" fill="#b0b0b0" d="M 274.5,252.5 C 273.521,255.625 273.187,258.958 273.5,262.5C 271.901,262.768 270.568,262.434 269.5,261.5C 269.833,261.5 270.167,261.5 270.5,261.5C 272.275,257.614 273.108,253.28 273,248.5C 273.791,249.745 274.291,251.078 274.5,252.5 Z"/></g>
<g><path style="opacity:0.495" fill="#7a7a7a" d="M 299.5,251.5 C 300.451,252.919 300.784,254.585 300.5,256.5C 296.629,256.185 292.962,256.518 289.5,257.5C 288.957,257.44 288.624,257.107 288.5,256.5C 292.107,255.511 295.774,255.177 299.5,255.5C 299.5,254.167 299.5,252.833 299.5,251.5 Z"/></g>
<g><path style="opacity:0.004" fill="#fefffe" d="M 419.5,255.5 C 420.833,256.167 420.833,256.167 419.5,255.5 Z"/></g>
<g><path style="opacity:0.647" fill="#ababab" d="M 285.5,256.5 C 286.404,257.209 286.737,258.209 286.5,259.5C 285.733,258.828 285.066,257.995 284.5,257C 284.728,256.601 285.062,256.435 285.5,256.5 Z"/></g>
<g><path style="opacity:0.098" fill="#c6c6c6" d="M 310.5,258.5 C 309.833,259.167 309.167,259.833 308.5,260.5C 308.181,258.25 308.681,256.25 310,254.5C 310.49,255.793 310.657,257.127 310.5,258.5 Z"/></g>
<g><path style="opacity:0.02" fill="#b8b8b8" d="M 298.5,258.5 C 299.885,259.947 299.552,260.947 297.5,261.5C 298.11,260.609 298.443,259.609 298.5,258.5 Z"/></g>
<g><path style="opacity:0.639" fill="#828282" d="M 322.5,258.5 C 320.204,258.804 319.871,259.804 321.5,261.5C 317.708,260.759 317.541,259.426 321,257.5C 321.765,257.57 322.265,257.903 322.5,258.5 Z"/></g>
<g><path style="opacity:0.004" fill="#fefffe" d="M 188.5,261.5 C 189.833,262.167 189.833,262.167 188.5,261.5 Z"/></g>
<g><path style="opacity:0.498" fill="#8a8a8a" d="M 303.5,258.5 C 304.404,259.209 304.737,260.209 304.5,261.5C 305.833,261.5 307.167,261.5 308.5,261.5C 307.081,262.451 305.415,262.784 303.5,262.5C 303.5,261.167 303.5,259.833 303.5,258.5 Z"/></g>
<g><path style="opacity:0.498" fill="#828282" d="M 310.5,259.5 C 312.167,262.167 313.833,262.167 315.5,259.5C 315.5,260.5 315.5,261.5 315.5,262.5C 313.833,262.5 312.167,262.5 310.5,262.5C 310.5,261.5 310.5,260.5 310.5,259.5 Z"/></g>
<g><path style="opacity:0.004" fill="#fefffe" d="M 509.5,262.5 C 510.833,263.167 510.833,263.167 509.5,262.5 Z"/></g>
<g><path style="opacity:0.004" fill="#fefffe" d="M 545.5,262.5 C 546.833,263.167 546.833,263.167 545.5,262.5 Z"/></g>
<g><path style="opacity:0.004" fill="#fefffe" d="M 473.5,265.5 C 474.833,266.167 474.833,266.167 473.5,265.5 Z"/></g>
<g><path style="opacity:0.004" fill="#fefffe" d="M 290.5,267.5 C 291.833,268.167 291.833,268.167 290.5,267.5 Z"/></g>
<g><path style="opacity:0.004" fill="#fefffe" d="M 554.5,275.5 C 555.833,276.167 555.833,276.167 554.5,275.5 Z"/></g>
<g><path style="opacity:0.004" fill="#fefffe" d="M 371.5,287.5 C 372.833,288.167 372.833,288.167 371.5,287.5 Z"/></g>
<g><path style="opacity:0.004" fill="#fefffe" d="M 242.5,291.5 C 243.833,292.167 243.833,292.167 242.5,291.5 Z"/></g>
<g><path style="opacity:0.004" fill="#fefffe" d="M 455.5,293.5 C 456.833,294.167 456.833,294.167 455.5,293.5 Z"/></g>
<g><path style="opacity:0.004" fill="#fefffe" d="M 155.5,300.5 C 156.833,301.167 156.833,301.167 155.5,300.5 Z"/></g>
<g><path style="opacity:0.004" fill="#fefffe" d="M 554.5,301.5 C 555.833,302.167 555.833,302.167 554.5,301.5 Z"/></g>
<g><path style="opacity:0.004" fill="#fefffe" d="M 329.5,312.5 C 330.833,313.167 330.833,313.167 329.5,312.5 Z"/></g>
<g><path style="opacity:0.004" fill="#fefffe" d="M 26.5,326.5 C 27.8333,327.167 27.8333,327.167 26.5,326.5 Z"/></g>
<g><path style="opacity:0.004" fill="#fefffe" d="M 77.5,329.5 C 78.8333,330.167 78.8333,330.167 77.5,329.5 Z"/></g>
<g><path style="opacity:0.004" fill="#fefffe" d="M 68.5,333.5 C 69.8333,334.167 69.8333,334.167 68.5,333.5 Z"/></g>
<g><path style="opacity:0.004" fill="#fefffe" d="M 560.5,336.5 C 561.833,337.167 561.833,337.167 560.5,336.5 Z"/></g>
<g><path style="opacity:0.004" fill="#fefffe" d="M 437.5,338.5 C 438.833,339.167 438.833,339.167 437.5,338.5 Z"/></g>
<g><path style="opacity:0.004" fill="#fefffe" d="M 50.5,344.5 C 51.8333,345.167 51.8333,345.167 50.5,344.5 Z"/></g>
<g><path style="opacity:0.004" fill="#fefffe" d="M 251.5,350.5 C 252.833,351.167 252.833,351.167 251.5,350.5 Z"/></g>
<g><path style="opacity:0.004" fill="#fefffe" d="M 50.5,353.5 C 51.8333,354.167 51.8333,354.167 50.5,353.5 Z"/></g>
<g><path style="opacity:0.004" fill="#fefffe" d="M 227.5,357.5 C 228.833,358.167 228.833,358.167 227.5,357.5 Z"/></g>
<g><path style="opacity:0.004" fill="#fefffe" d="M 104.5,360.5 C 105.833,361.167 105.833,361.167 104.5,360.5 Z"/></g>
<g><path style="opacity:0.004" fill="#fefffe" d="M 149.5,364.5 C 150.833,365.167 150.833,365.167 149.5,364.5 Z"/></g>
<g><path style="opacity:0.004" fill="#fefffe" d="M 335.5,369.5 C 336.833,370.167 336.833,370.167 335.5,369.5 Z"/></g>
<g><path style="opacity:0.004" fill="#fefffe" d="M 23.5,371.5 C 24.8333,372.167 24.8333,372.167 23.5,371.5 Z"/></g>
<g><path style="opacity:0.004" fill="#fefffe" d="M 311.5,371.5 C 312.833,372.167 312.833,372.167 311.5,371.5 Z"/></g>
<g><path style="opacity:0.004" fill="#fefffe" d="M 437.5,379.5 C 438.833,380.167 438.833,380.167 437.5,379.5 Z"/></g>
<g><path style="opacity:0.004" fill="#fefffe" d="M 557.5,379.5 C 558.833,380.167 558.833,380.167 557.5,379.5 Z"/></g>
<g><path style="opacity:0.004" fill="#fefffe" d="M 350.5,381.5 C 351.833,382.167 351.833,382.167 350.5,381.5 Z"/></g>
<g><path style="opacity:0.004" fill="#fefffe" d="M 32.5,387.5 C 33.8333,388.167 33.8333,388.167 32.5,387.5 Z"/></g>
<g><path style="opacity:0.004" fill="#fefffe" d="M 431.5,387.5 C 432.833,388.167 432.833,388.167 431.5,387.5 Z"/></g>
<g><path style="opacity:0.004" fill="#fefffe" d="M 113.5,389.5 C 114.833,390.167 114.833,390.167 113.5,389.5 Z"/></g>
<g><path style="opacity:0.004" fill="#fefffe" d="M 524.5,393.5 C 525.833,394.167 525.833,394.167 524.5,393.5 Z"/></g>
<g><path style="opacity:0.004" fill="#fefffe" d="M 11.5,396.5 C 12.8333,397.167 12.8333,397.167 11.5,396.5 Z"/></g>
<g><path style="opacity:0.004" fill="#fefffe" d="M 584.5,401.5 C 585.833,402.167 585.833,402.167 584.5,401.5 Z"/></g>
<g><path style="opacity:0.004" fill="#fefffe" d="M 11.5,404.5 C 12.8333,405.167 12.8333,405.167 11.5,404.5 Z"/></g>
<g><path style="opacity:0.004" fill="#fefffe" d="M 581.5,406.5 C 582.833,407.167 582.833,407.167 581.5,406.5 Z"/></g>
<g><path style="opacity:0.004" fill="#fefffe" d="M 239.5,409.5 C 240.833,410.167 240.833,410.167 239.5,409.5 Z"/></g>
<g><path style="opacity:0.004" fill="#fefffe" d="M 209.5,419.5 C 210.833,420.167 210.833,420.167 209.5,419.5 Z"/></g>
</svg>
